<?xml version="1.0" encoding="UTF-8"?>
<svg width="33px" height="33px" viewBox="0 0 33 33" version="1.1" xmlns="http://www.w3.org/2000/svg" xmlns:xlink="http://www.w3.org/1999/xlink">
    <title>Group 10</title>
    <defs>
        <filter id="filter-1">
            <feColorMatrix in="SourceGraphic" type="matrix" values="0 0 0 0 0.301961 0 0 0 0 0.301961 0 0 0 0 0.301961 0 0 0 1.000000 0"></feColorMatrix>
        </filter>
        <filter id="filter-2">
            <feColorMatrix in="SourceGraphic" type="matrix" values="0 0 0 0 0.301961 0 0 0 0 0.301961 0 0 0 0 0.301961 0 0 0 1.000000 0"></feColorMatrix>
        </filter>
    </defs>
    <g id="DESIGN" stroke="none" stroke-width="1" fill="none" fill-rule="evenodd">
        <g id="Group-10">
            <g filter="url(#filter-1)" id="Title-color-Copy-6">
                <g>
                    <g filter="url(#filter-2)" fill="#4D4D4D" id="Tools-/-Technology-/-devices-/-32">
                        <g>
                            <path d="M10.3125,30.9375 L4.125,30.9375 C2.9859127,30.9375 2.0625,30.0140873 2.0625,28.875 L2.0625,16.5 C2.0625,15.3609127 2.9859127,14.4375 4.125,14.4375 L10.3125,14.4375 C11.4515873,14.4375 12.375,15.3609127 12.375,16.5 L12.375,28.875 C12.375,30.0140873 11.4515873,30.9375 10.3125,30.9375 Z M4.125,16.5 L4.125,28.875 L10.3125,28.875 L10.3125,16.5 L4.125,16.5 Z M28.875,4.125 L6.1875,4.125 C5.0484127,4.125 4.125,5.0484127 4.125,6.1875 L4.125,12.375 L6.1875,12.375 L6.1875,6.1875 L28.875,6.1875 L28.875,20.625 L14.4375,20.625 L14.4375,22.6875 L16.5,22.6875 L16.5,26.8125 L14.4375,26.8125 L14.4375,28.875 L23.71875,28.875 L23.71875,26.8125 L18.5625,26.8125 L18.5625,22.6875 L28.875,22.6875 C30.0140873,22.6875 30.9375,21.7640873 30.9375,20.625 L30.9375,6.1875 C30.9375,5.0484127 30.0140873,4.125 28.875,4.125 Z" id="Fill" fill="#000000"></path>
                        </g>
                    </g>
                </g>
            </g>
            <rect id="Rectangle-Copy-4" x="0" y="0" width="33" height="33"></rect>
        </g>
    </g>
</svg>