<?xml version="1.0" encoding="UTF-8"?>
<svg width="33px" height="33px" viewBox="0 0 33 33" version="1.1" xmlns="http://www.w3.org/2000/svg" xmlns:xlink="http://www.w3.org/1999/xlink">
    <title>Group 6</title>
    <defs>
        <filter id="filter-1">
            <feColorMatrix in="SourceGraphic" type="matrix" values="0 0 0 0 0.301961 0 0 0 0 0.301961 0 0 0 0 0.301961 0 0 0 1.000000 0"></feColorMatrix>
        </filter>
    </defs>
    <g id="DESIGN" stroke="none" stroke-width="1" fill="none" fill-rule="evenodd">
        <g id="Group-6">
            <g filter="url(#filter-1)" fill="#4D4D4D" id="Actions-/-Navigation-/-home-/-24">
                <g>
                    <path d="M17.1314344,2.28298125 C16.7548064,1.98908373 16.2265279,1.98908373 15.8499,2.28298125 L1.03125,13.8387563 L2.31278438,15.4595719 L4.125,14.0465531 L4.125,26.8125 C4.12732601,27.9506224 5.04937756,28.872674 6.1875,28.875 L26.8125,28.875 C27.9507164,28.8729001 28.8729001,27.9507164 28.875,26.8125 L28.875,14.0559375 L30.6872156,15.46875 L31.96875,13.8478313 L17.1314344,2.28298125 Z M18.5625,26.8125 L14.4375,26.8125 L14.4375,18.5625 L18.5625,18.5625 L18.5625,26.8125 Z M20.625,26.8125 L20.625,18.5625 C20.6236929,17.4239546 19.7010454,16.5013071 18.5625,16.5 L14.4375,16.5 C13.298884,16.5011369 12.3761369,17.423884 12.375,18.5625 L12.375,26.8125 L6.1875,26.8125 L6.1875,12.4384219 L16.5,4.40498437 L26.8125,12.44925 L26.8125,26.8125 L20.625,26.8125 Z" id="Fill" fill="#000000"></path>
                </g>
            </g>
            <rect id="Rectangle-Copy-5" x="0" y="0" width="33" height="33"></rect>
        </g>
    </g>
</svg>