<?xml version="1.0" encoding="UTF-8"?>
<svg width="70px" height="122px" viewBox="0 0 70 122" version="1.1" xmlns="http://www.w3.org/2000/svg" xmlns:xlink="http://www.w3.org/1999/xlink">
    <title>Path 7</title>
    <g id="DESIGN" stroke="none" stroke-width="1" fill="none" fill-rule="evenodd">
        <g id="1.1-Configuración---Acceso" transform="translate(-190.000000, -108.000000)" fill="#39FE90" fill-rule="nonzero">
            <path id="Path-7" d="M201.865401,110.912171 C201.907676,111.423262 201.557793,111.876317 201.066909,111.974884 L200.951239,111.991202 L191.033,112.811 L198.424666,116.200273 C241.340129,137.78766 262.829263,174.587332 262.829263,226.44214 C262.829263,226.994425 262.381547,227.44214 261.829263,227.44214 C261.276978,227.44214 260.829263,226.994425 260.829263,226.44214 C260.829263,175.836618 240.16858,139.949597 198.817933,118.643808 L197.55855,118.002641 L190.202,114.63 L196.051637,122.678456 C196.351385,123.090826 196.290167,123.655426 195.927606,123.995253 L195.830723,124.075309 C195.418353,124.375056 194.853754,124.313838 194.513926,123.951278 L194.43387,123.854395 L186.338612,112.717551 C185.90304,112.118325 186.249303,111.285573 186.951321,111.148682 L187.06506,111.132986 L200.78637,109.99801 C201.336775,109.952482 201.819873,110.361766 201.865401,110.912171 Z"></path>
        </g>
    </g>
</svg>