<?xml version="1.0" encoding="UTF-8"?>
<svg width="45px" height="19px" viewBox="0 0 45 19" version="1.1" xmlns="http://www.w3.org/2000/svg" xmlns:xlink="http://www.w3.org/1999/xlink">
    <title>Group 3 Copy</title>
    <g id="DESIGN" stroke="none" stroke-width="1" fill="none" fill-rule="evenodd">
        <g id="2.0-Home" transform="translate(-20.000000, -63.000000)">
            <g id="Group-3-Copy" transform="translate(20.000000, 63.000000)">
                <polygon id="Fill-3" fill="#00F9FC" points="7.1451923 0.985373673 0 11.7049767 4.36845534 11.7049767 11.5136476 0.985373673"></polygon>
                <polygon id="Fill-4" fill="#00FE8A" points="11.4017533 11.8063803 11.4017533 8.92582032 8.05274009 8.92582032 8.05274009 11.8063803 5.16129032 11.8063803 5.16129032 15.176774 8.05274009 15.176774 8.05274009 18.057334 11.4017533 18.057334 11.4017533 15.176774 14.292804 15.176774 14.292804 11.8063803"></polygon>
                <g id="Group-9" transform="translate(15.483871, 0.588351)" fill="#FFFFFF">
                    <path d="M17.9768734,8.84341439 C17.9768734,9.59001489 18.057866,10.2689231 18.2208437,10.8807345 C18.3836228,11.4929429 18.6138958,12.0225707 18.9124566,12.4704119 C19.2106203,12.9180546 19.5673449,13.2648536 19.9836228,13.5114045 C20.3997022,13.7573598 20.8691811,13.8806352 21.3942432,13.8806352 C21.9002481,13.8806352 22.3657568,13.7573598 22.7911663,13.5114045 C23.2153846,13.2648536 23.5727047,12.9180546 23.8619355,12.4704119 C24.1509677,12.0225707 24.3772705,11.4929429 24.5402481,10.8807345 C24.7026303,10.2689231 24.7844169,9.59001489 24.7844169,8.84341439 C24.7844169,8.11209926 24.7026303,7.43676427 24.5402481,6.81721092 C24.3772705,6.1982531 24.1509677,5.66802978 23.8619355,5.2275335 C23.5727047,4.78763275 23.2153846,4.44400993 22.7911663,4.19805459 C22.3657568,3.95130521 21.9002481,3.8284268 21.3942432,3.8284268 C20.8691811,3.8284268 20.3997022,3.95130521 19.9836228,4.19805459 C19.5673449,4.44400993 19.2106203,4.78763275 18.9124566,5.2275335 C18.6138958,5.66802978 18.3836228,6.1982531 18.2208437,6.81721092 C18.057866,7.43676427 17.9768734,8.11209926 17.9768734,8.84341439 M13.9611911,8.90594541 C13.9611911,7.57969231 14.1432258,6.37433251 14.5068983,5.29085856 C14.8705707,4.20738462 15.3811414,3.2827196 16.0394045,2.51626799 C16.697469,1.7502134 17.4790074,1.15626799 18.3852109,0.736813896 C19.2904218,0.316565757 20.2927047,0.106342432 21.3922581,0.106342432 C22.4751365,0.106342432 23.4738462,0.316565757 24.3873945,0.736813896 C25.3009429,1.15626799 26.0828784,1.7502134 26.7326055,2.51626799 C27.382928,3.2827196 27.8901241,4.20738462 28.2537965,5.29085856 C28.617072,6.37433251 28.7997022,7.57969231 28.7997022,8.90594541 C28.7997022,10.2325955 28.617072,11.4373598 28.2537965,12.5208337 C27.8901241,13.6043077 27.382928,14.53334 26.7326055,15.306938 C26.0828784,16.080536 25.3009429,16.6776576 24.3873945,17.0979057 C23.4738462,17.5177568 22.4751365,17.7279801 21.3922581,17.7279801 C20.2927047,17.7279801 19.2904218,17.5177568 18.3852109,17.0979057 C17.4790074,16.6776576 16.697469,16.080536 16.0394045,15.306938 C15.3811414,14.53334 14.8705707,13.6043077 14.5068983,12.5208337 C14.1432258,11.4373598 13.9611911,10.2325955 13.9611911,8.90594541" id="Fill-5"></path>
                    <path d="M8.88412903,5.08254094 C8.88412903,4.13206948 8.07380645,3.12641191 6.56472457,3.12641191 C5.05584119,3.12641191 4.24551861,4.13206948 4.24551861,5.08254094 C4.24551861,6.17216873 5.00005955,7.17842184 6.56472457,7.2062134 C8.15757816,7.17842184 8.88412903,6.17216873 8.88412903,5.08254094 M9.09891811,12.3289926 C9.09891811,11.2838313 8.31499752,10.1606551 6.56472457,10.1606551 C4.84065509,10.1606551 4.05713151,11.2838313 4.05713151,12.3289926 C4.05713151,13.3479504 4.91886849,14.4447246 6.56472457,14.4447246 C8.23658561,14.4447246 9.09891811,13.3479504 9.09891811,12.3289926 M0.0341042184,12.799067 C0.0341042184,11.048794 1.13127543,9.376933 2.90755335,8.67162283 C1.1572804,8.04452605 0.347354839,6.2942531 0.347354839,4.96204467 C0.347354839,2.11479901 2.90755335,0.0506799007 6.56472457,0.0506799007 C10.2480993,0.0506799007 12.8082978,2.11479901 12.8082978,4.96204467 C12.8082978,6.2942531 11.9723672,8.04452605 10.2220943,8.67162283 C11.9983722,9.376933 13.1215484,11.048794 13.1215484,12.799067 C13.1215484,15.77733 10.4307295,17.7888437 6.56472457,17.7888437 C2.72452605,17.7888437 0.0341042184,15.77733 0.0341042184,12.799067" id="Fill-7"></path>
                </g>
            </g>
        </g>
    </g>
</svg>