<?xml version="1.0" encoding="UTF-8"?>
<svg width="33px" height="33px" viewBox="0 0 33 33" version="1.1" xmlns="http://www.w3.org/2000/svg" xmlns:xlink="http://www.w3.org/1999/xlink">
    <title>Group 8</title>
    <defs>
        <filter id="filter-1">
            <feColorMatrix in="SourceGraphic" type="matrix" values="0 0 0 0 0.301961 0 0 0 0 0.301961 0 0 0 0 0.301961 0 0 0 1.000000 0"></feColorMatrix>
        </filter>
        <filter id="filter-2">
            <feColorMatrix in="SourceGraphic" type="matrix" values="0 0 0 0 0.301961 0 0 0 0 0.301961 0 0 0 0 0.301961 0 0 0 1.000000 0"></feColorMatrix>
        </filter>
    </defs>
    <g id="DESIGN" stroke="none" stroke-width="1" fill="none" fill-rule="evenodd">
        <g id="Group-8">
            <g filter="url(#filter-1)" id="Title-color-Copy-4">
                <g>
                    <g filter="url(#filter-2)" fill="#4D4D4D" id="Planning-/-Travel-/-car-/-32">
                        <g>
                            <path d="M30.256875,16.438125 L22.2853125,13.57125 L18.9440625,9.384375 C18.3568403,8.66683948 17.4787555,8.25050616 16.5515625,8.25 L8.3015625,8.25 C7.2798058,8.25528082 6.32655275,8.7647116 5.754375,9.61125 L2.9596875,13.73625 C2.38075811,14.5845585 2.06834776,15.5864261 2.0625,16.6134375 L2.0625,24.75 C2.0625,25.3195436 2.52420635,25.78125 3.09375,25.78125 L5.300625,25.78125 C5.7888165,27.5776466 7.41969911,28.8244692 9.28125,28.8244692 C11.1428009,28.8244692 12.7736835,27.5776466 13.261875,25.78125 L19.738125,25.78125 C20.2263165,27.5776466 21.8571991,28.8244692 23.71875,28.8244692 C25.5803009,28.8244692 27.2111835,27.5776466 27.699375,25.78125 L29.90625,25.78125 C30.4757936,25.78125 30.9375,25.3195436 30.9375,24.75 L30.9375,17.4075 C30.9375,16.9733127 30.6651958,16.5857486 30.256875,16.438125 Z M9.28125,26.8125 C8.1421627,26.8125 7.21875,25.8890873 7.21875,24.75 C7.21875,23.6109127 8.1421627,22.6875 9.28125,22.6875 C10.4203373,22.6875 11.34375,23.6109127 11.34375,24.75 C11.34375,25.8890873 10.4203373,26.8125 9.28125,26.8125 Z M23.71875,26.8125 C22.5796627,26.8125 21.65625,25.8890873 21.65625,24.75 C21.65625,23.6109127 22.5796627,22.6875 23.71875,22.6875 C24.8578373,22.6875 25.78125,23.6109127 25.78125,24.75 C25.78125,25.8890873 24.8578373,26.8125 23.71875,26.8125 Z M28.875,23.71875 L27.699375,23.71875 C27.2111835,21.9223534 25.5803009,20.6755308 23.71875,20.6755308 C21.8571991,20.6755308 20.2263165,21.9223534 19.738125,23.71875 L13.261875,23.71875 C12.7736835,21.9223534 11.1428009,20.6755308 9.28125,20.6755308 C7.41969911,20.6755308 5.7888165,21.9223534 5.300625,23.71875 L4.12499936,23.71875 L4.12499936,16.6134375 C4.12460149,15.991819 4.31147,15.3844963 4.66125,14.870625 L7.4559375,10.745625 C7.65264752,10.4692595 7.97269105,10.3073098 8.311875,10.3123789 L16.561875,10.3123789 C16.868602,10.3120019 17.1596324,10.448068 17.3559375,10.68375 L20.8621875,15.0871875 C20.9831122,15.2337732 21.1392251,15.3473098 21.3159375,15.4171875 L28.875,18.129375 L28.875,23.71875 Z" id="Fill" fill="#000000"></path>
                        </g>
                    </g>
                </g>
            </g>
            <rect id="Rectangle" x="0" y="0" width="33" height="33"></rect>
        </g>
    </g>
</svg>