<?xml version="1.0" encoding="UTF-8"?>
<svg width="79px" height="33px" viewBox="0 0 79 33" version="1.1" xmlns="http://www.w3.org/2000/svg" xmlns:xlink="http://www.w3.org/1999/xlink">
    <title>Group 3</title>
    <g id="DESIGN" stroke="none" stroke-width="1" fill="none" fill-rule="evenodd">
        <g id="1.0-Login" transform="translate(-148.000000, -98.000000)">
            <g id="Group-5">
                <g id="Group-3" transform="translate(148.000000, 98.000000)">
                    <polygon id="Fill-3" fill="#00F9FC" points="12.5040865 1.22440393 0 19.9837091 7.64479685 19.9837091 20.1488834 1.22440393"></polygon>
                    <polygon id="Fill-4" fill="#00FE8A" points="19.9530683 20.1611655 19.9530683 15.1201856 14.0922952 15.1201856 14.0922952 20.1611655 9.03225806 20.1611655 9.03225806 26.0593545 14.0922952 26.0593545 14.0922952 31.1003344 19.9530683 31.1003344 19.9530683 26.0593545 25.0124069 26.0593545 25.0124069 20.1611655"></polygon>
                    <g id="Group-9" transform="translate(27.096774, 0.529615)" fill="#FFFFFF">
                        <path d="M31.4595285,15.4759752 C31.4595285,16.7825261 31.6012655,17.9706154 31.8864764,19.0412854 C32.17134,20.1126501 32.5743176,21.0394988 33.096799,21.8232208 C33.6185856,22.6065955 34.2428536,23.2134938 34.97134,23.6449578 C35.6994789,24.0753797 36.521067,24.2911117 37.4399256,24.2911117 C38.3254342,24.2911117 39.1400744,24.0753797 39.8845409,23.6449578 C40.6269231,23.2134938 41.2522333,22.6065955 41.7583871,21.8232208 C42.2641935,21.0394988 42.6602233,20.1126501 42.9454342,19.0412854 C43.229603,17.9706154 43.3727295,16.7825261 43.3727295,15.4759752 C43.3727295,14.1961737 43.229603,13.0143375 42.9454342,11.9301191 C42.6602233,10.8469429 42.2641935,9.91905211 41.7583871,9.14818362 C41.2522333,8.37835732 40.6269231,7.77701737 39.8845409,7.34659553 C39.1400744,6.91478412 38.3254342,6.6997469 37.4399256,6.6997469 C36.521067,6.6997469 35.6994789,6.91478412 34.97134,7.34659553 C34.2428536,7.77701737 33.6185856,8.37835732 33.096799,9.14818362 C32.5743176,9.91905211 32.17134,10.8469429 31.8864764,11.9301191 C31.6012655,13.0143375 31.4595285,14.1961737 31.4595285,15.4759752 M24.4320844,15.5854045 C24.4320844,13.2644615 24.7506452,11.1550819 25.387072,9.25900248 C26.0234988,7.36292308 26.9169975,5.74475931 28.0689578,4.40346898 C29.2205707,3.06287345 30.588263,2.02346898 32.1741191,1.28942432 C33.7582382,0.553990074 35.5122333,0.186099256 37.4364516,0.186099256 C39.3314888,0.186099256 41.0792308,0.553990074 42.6779404,1.28942432 C44.2766501,2.02346898 45.6450372,3.06287345 46.7820596,4.40346898 C47.9201241,5.74475931 48.8077171,7.36292308 49.4441439,9.25900248 C50.0798759,11.1550819 50.3994789,13.2644615 50.3994789,15.5854045 C50.3994789,17.9070422 50.0798759,20.0153797 49.4441439,21.9114591 C48.8077171,23.8075385 47.9201241,25.4333449 46.7820596,26.7871414 C45.6450372,28.140938 44.2766501,29.1859007 42.6779404,29.921335 C41.0792308,30.6560744 39.3314888,31.0239653 37.4364516,31.0239653 C35.5122333,31.0239653 33.7582382,30.6560744 32.1741191,29.921335 C30.588263,29.1859007 29.2205707,28.140938 28.0689578,26.7871414 C26.9169975,25.4333449 26.0234988,23.8075385 25.387072,21.9114591 C24.7506452,20.0153797 24.4320844,17.9070422 24.4320844,15.5854045" id="Fill-5"></path>
                        <path d="M15.5472258,8.89444665 C15.5472258,7.23112159 14.1291613,5.47122084 11.488268,5.47122084 C8.84772208,5.47122084 7.42965757,7.23112159 7.42965757,8.89444665 C7.42965757,10.8012953 8.75010422,12.5622382 11.488268,12.6108734 C14.2757618,12.5622382 15.5472258,10.8012953 15.5472258,8.89444665 M15.9231067,21.575737 C15.9231067,19.7467047 14.5512457,17.7811464 11.488268,17.7811464 C8.4711464,17.7811464 7.09998015,19.7467047 7.09998015,21.575737 C7.09998015,23.3589132 8.60801985,25.278268 11.488268,25.278268 C14.4140248,25.278268 15.9231067,23.3589132 15.9231067,21.575737 M0.0596823821,22.3983672 C0.0596823821,19.3353896 1.97973201,16.4096328 5.08821836,15.17534 C2.02524069,14.0779206 0.607870968,11.0149429 0.607870968,8.68357816 C0.607870968,3.70089826 5.08821836,0.0886898263 11.488268,0.0886898263 C17.9341737,0.0886898263 22.4145211,3.70089826 22.4145211,8.68357816 C22.4145211,11.0149429 20.9516427,14.0779206 17.888665,15.17534 C20.9971514,16.4096328 22.9627097,19.3353896 22.9627097,22.3983672 C22.9627097,27.6103275 18.2537767,31.1304764 11.488268,31.1304764 C4.7679206,31.1304764 0.0596823821,27.6103275 0.0596823821,22.3983672" id="Fill-7"></path>
                    </g>
                </g>
            </g>
        </g>
    </g>
</svg>